<svg width="44" height="44" viewBox="0 0 44 44" fill="none" xmlns="http://www.w3.org/2000/svg">
<path d="M22 44C34.1917 44 44 34.1917 44 22C44 9.80826 34.1917 0 22 0C9.80826 0 0 9.80826 0 22C0 34.1917 9.80826 44 22 44Z" fill="#2775CA"/>
<path d="M28.0489 25.4836C28.0489 22.2753 26.1239 21.1753 22.2739 20.7171C19.5239 20.3503 18.9739 19.6171 18.9739 18.3336C18.9739 17.0501 19.8906 16.2253 21.7239 16.2253C23.3739 16.2253 24.2906 16.7753 24.7489 18.1503C24.8406 18.4253 25.1156 18.6086 25.3906 18.6086H26.8571C27.2239 18.6086 27.4989 18.3336 27.4989 17.9671V17.8753C27.1321 15.8586 25.4821 14.3003 23.3739 14.1171V11.9171C23.3739 11.5503 23.0989 11.2753 22.6406 11.1836H21.2656C20.8989 11.1836 20.6239 11.4586 20.5321 11.9171V14.0253C17.7821 14.3921 16.0406 16.2253 16.0406 18.5171C16.0406 21.5421 17.8739 22.7336 21.7239 23.1921C24.2906 23.6503 25.1156 24.2003 25.1156 25.6671C25.1156 27.1338 23.8321 28.1421 22.0906 28.1421C19.7071 28.1421 18.8821 27.1336 18.6071 25.7586C18.5156 25.3921 18.2406 25.2086 17.9656 25.2086H16.4071C16.0406 25.2086 15.7656 25.4836 15.7656 25.8503V25.9421C16.1321 28.2336 17.5989 29.8836 20.6239 30.3421V32.5421C20.6239 32.9086 20.8989 33.1836 21.3571 33.2753H22.7321C23.0989 33.2753 23.3739 33.0003 23.4656 32.5421V30.3421C26.2156 29.8836 28.0489 27.9586 28.0489 25.4836Z" fill="white"/>
<path d="M17.3268 35.1075C10.1768 32.541 6.51005 24.566 9.16853 17.5075C10.5435 13.6575 13.5685 10.7243 17.3268 9.34928C17.6935 9.16602 17.8768 8.89102 17.8768 8.43253V7.14928C17.8768 6.78254 17.6935 6.50754 17.3268 6.41602C17.235 6.41602 17.0518 6.41602 16.96 6.50754C8.25179 9.25753 3.48505 18.516 6.23505 27.2243C7.88505 32.3575 11.8268 36.2993 16.96 37.9493C17.3268 38.1325 17.6935 37.9493 17.785 37.5825C17.8768 37.491 17.8768 37.3993 17.8768 37.216V35.9325C17.8768 35.6575 17.6018 35.291 17.3268 35.1075ZM27.0435 6.50754C26.6768 6.32428 26.31 6.50754 26.2185 6.87428C26.1268 6.96602 26.1268 7.05754 26.1268 7.24102V8.52428C26.1268 8.89102 26.4018 9.25754 26.6768 9.44102C33.8268 12.0075 37.4935 19.9825 34.835 27.041C33.46 30.891 30.435 33.8243 26.6768 35.1993C26.31 35.3825 26.1268 35.6575 26.1268 36.116V37.3993C26.1268 37.766 26.31 38.041 26.6768 38.1325C26.7685 38.1325 26.9518 38.1325 27.0435 38.041C35.7518 35.291 40.5185 26.0325 37.7685 17.3243C36.1185 12.0993 32.085 8.15754 27.0435 6.50754Z" fill="white"/>
</svg>
