<?xml version="1.0" encoding="UTF-8" ?>
<!DOCTYPE svg PUBLIC "-//W3C//DTD SVG 1.1//EN" "http://www.w3.org/Graphics/SVG/1.1/DTD/svg11.dtd">
<svg width="957pt" height="957pt" viewBox="0 0 957 957" version="1.1" xmlns="http://www.w3.org/2000/svg">
<g id="#929292ff">
</g>
<g id="#000000ff">
<path fill="#000000" opacity="1.00" d=" M 447.65 0.00 L 521.32 0.00 C 534.53 1.54 547.82 2.67 560.94 4.94 C 601.72 11.46 641.87 23.41 678.60 42.49 C 708.43 58.02 735.99 78.44 757.93 104.06 C 778.66 128.09 794.12 156.62 802.89 187.13 C 813.29 223.01 814.58 261.09 809.62 297.98 C 804.91 335.80 795.30 373.12 780.12 408.12 C 765.84 441.06 746.60 471.90 722.78 498.77 C 708.62 515.03 692.52 529.44 675.71 542.89 C 695.48 573.55 712.65 605.92 726.15 639.84 C 755.09 711.85 768.52 789.69 768.14 867.18 C 828.43 867.47 888.72 867.21 949.01 867.30 C 949.43 897.19 949.08 927.10 949.18 957.00 L 937.27 957.00 C 937.24 931.61 937.33 906.22 937.22 880.83 C 813.93 906.27 690.62 931.64 567.31 957.00 L 507.40 957.00 C 615.34 934.95 723.22 912.58 831.14 890.44 C 848.40 886.77 865.74 883.49 882.96 879.60 C 801.47 879.30 719.97 879.52 638.48 879.48 C 631.92 886.95 624.66 895.07 614.62 897.49 C 611.11 898.56 606.93 896.37 606.18 892.71 C 605.16 888.39 605.56 883.91 605.34 879.52 C 501.22 879.38 397.10 879.51 292.98 879.46 C 290.38 879.27 288.18 880.79 285.99 881.95 C 277.27 886.70 268.38 891.16 259.38 895.35 C 255.04 896.99 249.25 898.12 245.64 894.37 C 241.85 890.10 239.97 884.58 237.64 879.46 C 205.44 879.45 173.24 879.50 141.05 879.43 C 140.98 884.51 141.01 889.59 140.96 894.67 C 93.98 894.62 46.99 894.66 0.00 894.65 L 0.00 882.58 C 15.62 882.57 31.23 882.58 46.85 882.58 C 45.72 875.75 45.44 868.82 44.65 861.95 C 43.85 853.95 42.52 845.99 42.28 837.93 C 35.50 837.28 28.74 838.33 21.96 838.38 C 14.63 838.51 7.32 839.01 0.00 839.29 L 0.00 827.33 C 15.03 826.95 30.03 825.60 45.06 825.24 C 47.59 825.14 50.10 825.62 52.47 826.50 C 81.89 836.83 111.46 846.77 140.89 857.12 C 140.97 860.48 141.03 863.84 141.08 867.20 C 171.80 867.34 202.52 867.41 233.24 867.17 C 231.18 858.92 228.63 850.80 226.70 842.53 C 216.37 798.74 209.87 754.09 206.79 709.22 C 205.53 696.19 205.36 683.09 205.20 670.00 C 204.65 655.68 205.35 641.36 205.68 627.04 C 208.15 585.06 214.52 542.47 232.49 504.05 C 223.89 491.56 215.55 478.86 208.57 465.38 C 183.42 417.81 169.69 364.30 168.35 310.54 C 165.20 310.43 162.05 310.31 158.90 310.22 C 158.78 306.20 158.79 302.18 158.92 298.17 C 161.95 298.13 164.98 297.99 168.02 297.93 C 168.37 290.97 168.31 284.00 168.63 277.04 C 171.33 228.73 184.05 180.54 208.70 138.69 C 227.58 106.50 253.40 78.44 283.81 56.83 C 310.56 37.73 340.67 23.56 372.12 14.13 C 396.68 6.63 422.12 2.38 447.65 0.00 M 393.87 26.66 C 348.46 37.56 305.06 58.76 270.49 90.44 C 232.08 125.10 205.90 172.31 194.39 222.57 C 188.31 247.56 185.95 273.32 185.79 298.99 C 191.54 299.13 197.30 299.17 203.05 299.16 C 217.01 300.18 231.02 299.62 244.99 299.77 C 255.93 300.00 266.92 299.04 277.58 296.61 C 284.15 294.88 292.25 291.07 292.10 283.10 C 295.84 283.04 299.59 283.05 303.33 283.08 C 303.22 286.79 302.78 290.62 300.83 293.87 C 297.26 300.76 289.99 304.58 282.94 307.04 C 285.51 315.57 288.27 324.11 289.33 332.99 C 289.63 338.66 289.71 344.36 289.30 350.03 C 288.05 357.91 284.93 365.60 279.73 371.71 C 272.56 380.13 262.06 385.09 251.41 387.43 C 241.17 390.04 230.49 389.78 220.02 389.38 C 212.29 389.33 204.84 387.07 197.20 386.30 C 199.19 396.94 203.06 407.15 206.60 417.36 C 215.04 440.51 226.29 462.59 239.77 483.20 C 240.64 484.53 241.73 485.70 242.83 486.85 C 256.47 465.60 276.60 447.79 300.94 440.07 C 307.71 438.35 314.76 438.36 321.68 437.68 C 330.00 436.56 338.34 437.91 346.64 438.39 C 360.65 439.71 374.47 442.81 387.76 447.41 C 424.10 459.89 455.96 483.05 482.51 510.49 C 505.34 533.76 524.41 560.45 541.17 588.34 C 597.71 573.45 651.17 545.11 693.12 504.12 C 719.50 478.53 741.18 448.21 757.28 415.19 C 772.28 384.47 782.65 351.54 788.60 317.90 C 796.70 274.11 797.77 227.91 783.67 185.20 C 773.94 154.65 756.34 126.90 733.87 104.13 C 709.22 79.70 679.39 60.88 647.45 47.50 C 617.26 34.76 585.31 26.52 552.96 21.64 C 500.22 14.13 445.85 13.96 393.87 26.66 M 186.39 310.58 C 186.78 330.72 189.47 350.75 193.41 370.49 C 193.79 371.57 193.91 373.29 195.43 373.38 C 211.88 377.57 229.28 379.81 246.10 376.52 C 258.37 374.60 271.36 367.98 275.78 355.62 C 280.76 340.58 276.65 324.32 271.16 310.02 C 242.97 313.09 214.64 310.77 186.39 310.58 M 299.71 468.47 C 298.34 467.04 297.03 465.57 295.76 464.06 C 298.49 462.00 301.21 459.93 304.10 458.08 C 300.94 459.24 297.67 460.16 294.71 461.77 C 277.52 470.60 263.79 485.31 254.37 502.03 C 255.60 505.03 258.31 507.21 260.21 509.83 C 286.22 540.61 318.97 565.98 356.13 581.83 C 384.77 594.24 415.85 600.58 447.01 601.40 C 472.57 601.75 498.03 597.96 522.93 592.49 C 499.90 554.77 471.61 519.52 435.92 493.05 C 420.01 481.51 402.83 471.23 384.05 465.15 C 385.99 466.81 387.98 468.42 389.97 470.03 C 388.91 471.53 387.85 473.03 386.79 474.52 C 383.75 472.88 381.01 470.78 378.12 468.92 C 367.92 462.61 356.55 457.82 344.54 456.59 C 328.84 454.64 312.35 458.90 299.71 468.47 M 245.20 520.63 C 235.96 541.99 230.98 564.94 227.64 587.89 C 222.61 622.67 222.58 657.93 223.86 692.98 C 225.47 722.10 228.41 751.14 232.94 779.95 C 237.43 808.16 242.93 836.29 251.33 863.63 C 251.98 864.88 252.07 867.40 254.00 867.25 C 260.97 867.26 267.99 867.56 274.95 867.09 C 280.05 865.15 284.57 861.96 289.37 859.41 C 325.65 838.49 359.40 813.40 391.18 786.19 C 446.52 738.70 496.33 685.08 542.85 629.02 C 539.77 622.23 536.04 615.76 532.57 609.17 C 528.78 609.58 525.08 610.49 521.39 611.40 C 492.21 617.25 462.33 621.16 432.54 618.64 C 400.18 616.50 368.29 607.92 339.03 593.95 C 307.04 578.62 278.28 556.77 254.37 530.61 C 251.27 527.32 248.57 523.66 245.20 520.63 M 656.99 556.00 C 641.27 566.51 624.66 575.69 607.43 583.48 C 604.41 584.97 600.81 585.84 598.74 588.71 C 587.97 602.60 576.93 616.27 565.80 629.87 C 563.54 632.04 566.15 634.79 566.91 637.06 C 600.06 709.23 619.28 787.81 623.22 867.10 C 623.64 867.12 624.49 867.14 624.91 867.15 C 632.91 857.36 638.34 845.73 643.19 834.13 C 654.08 807.20 660.76 778.81 666.46 750.40 C 672.59 718.86 676.92 686.99 680.57 655.08 C 681.39 644.39 683.15 633.79 683.70 623.08 C 684.25 614.69 685.75 606.37 685.83 597.96 C 685.98 595.84 684.80 594.02 683.88 592.23 C 676.67 579.14 669.22 566.14 660.85 553.75 C 659.55 554.47 658.25 555.20 656.99 556.00 M 550.93 604.27 C 552.08 607.42 553.67 610.39 555.39 613.27 C 559.64 609.29 563.29 604.64 566.37 599.71 C 561.16 601.00 556.03 602.60 550.93 604.27 M 701.54 628.88 C 695.87 683.85 689.19 738.93 675.58 792.60 C 669.01 818.39 660.44 843.86 647.40 867.16 C 681.59 867.42 715.78 867.32 749.96 867.21 C 750.43 798.76 739.60 730.08 716.51 665.56 C 711.90 653.19 707.42 640.71 701.54 628.88 M 516.54 687.52 C 463.56 746.63 406.33 802.60 341.03 848.08 C 331.82 854.76 321.90 860.43 312.66 867.05 C 320.09 867.58 327.55 867.18 335.00 867.30 C 409.00 867.30 483.00 867.30 557.00 867.30 C 572.93 867.15 588.87 867.60 604.79 867.08 C 604.57 859.39 604.38 851.69 603.44 844.05 C 597.39 776.13 579.61 709.32 551.65 647.15 C 539.94 660.60 528.47 674.26 516.54 687.52 M 54.44 840.15 C 54.88 843.72 55.27 847.31 55.52 850.91 C 56.25 861.48 58.20 871.94 58.68 882.53 C 82.05 882.66 105.42 882.50 128.79 882.61 C 129.24 876.91 129.51 871.14 128.67 865.47 C 103.82 857.37 79.26 848.36 54.44 840.15 Z" />
<path fill="#000000" opacity="1.00" d=" M 361.27 277.96 C 364.97 278.70 368.56 279.89 372.08 281.24 C 371.63 284.80 370.18 289.03 372.92 292.06 C 376.41 295.53 381.53 296.64 386.23 297.42 C 414.51 300.25 442.79 295.90 470.99 293.97 C 481.91 292.42 492.97 292.12 503.96 291.14 C 523.27 289.28 542.70 289.09 562.10 288.73 C 566.11 288.72 568.88 292.54 569.89 296.06 C 574.24 309.90 577.34 324.80 574.17 339.23 C 571.51 354.86 562.25 369.13 549.52 378.49 C 534.57 389.67 516.22 395.64 497.82 397.76 C 485.03 399.60 471.96 399.47 459.17 397.73 C 438.66 395.32 418.30 388.71 401.35 376.70 C 387.99 367.03 377.24 352.61 375.05 335.95 C 372.99 326.33 375.47 316.60 377.48 307.20 C 371.27 305.38 364.99 302.04 361.96 296.05 C 358.92 290.46 359.90 283.88 361.27 277.96 M 511.09 302.40 C 497.34 302.81 483.72 304.91 469.99 305.63 C 463.98 305.98 458.04 307.06 452.03 307.40 C 434.37 308.53 416.74 310.79 399.02 310.24 C 395.76 310.18 392.50 309.83 389.24 310.04 C 386.36 318.02 385.60 326.63 386.70 335.02 C 388.66 347.44 396.55 358.14 406.35 365.67 C 421.82 377.68 441.14 383.42 460.27 386.23 C 472.33 387.47 484.50 387.52 496.57 386.30 C 513.64 383.81 530.98 378.64 544.47 367.46 C 554.41 359.42 561.53 347.67 562.93 334.86 C 564.52 323.22 562.55 311.40 558.95 300.31 C 542.97 300.30 527.02 301.33 511.09 302.40 Z" />
<path fill="#000000" opacity="1.00" d=" M 211.29 330.29 C 217.26 328.24 224.44 333.57 223.77 339.96 C 224.27 347.57 214.17 352.65 208.32 347.76 C 201.69 343.57 203.60 332.06 211.29 330.29 Z" />
<path fill="#000000" opacity="1.00" d=" M 416.34 334.36 C 422.65 331.61 430.30 337.06 429.70 343.93 C 429.78 350.61 422.25 355.21 416.21 352.64 C 408.12 350.01 408.22 336.91 416.34 334.36 Z" />
<path fill="#000000" opacity="1.00" d=" M 321.79 491.86 C 341.92 491.82 362.04 491.82 382.17 491.86 C 382.24 495.93 382.23 500.00 382.19 504.07 C 362.05 504.10 341.91 504.10 321.77 504.07 C 321.72 500.00 321.71 495.93 321.79 491.86 Z" />
<path fill="#000000" opacity="1.00" d=" M 0.00 724.34 C 0.86 728.17 2.22 731.94 2.39 735.90 C 1.95 737.38 0.78 738.52 0.00 739.85 L 0.00 724.34 Z" />
</g>
<g id="#ffffffff">
<path fill="#ffffff" opacity="1.00" d=" M 393.87 26.66 C 445.85 13.96 500.22 14.13 552.96 21.64 C 585.31 26.52 617.26 34.76 647.45 47.50 C 679.39 60.88 709.22 79.70 733.87 104.13 C 756.34 126.90 773.94 154.65 783.67 185.20 C 797.77 227.91 796.70 274.11 788.60 317.90 C 782.65 351.54 772.28 384.47 757.28 415.19 C 741.18 448.21 719.50 478.53 693.12 504.12 C 651.17 545.11 597.71 573.45 541.17 588.34 C 524.41 560.45 505.34 533.76 482.51 510.49 C 455.96 483.05 424.10 459.89 387.76 447.41 C 374.47 442.81 360.65 439.71 346.64 438.39 C 338.34 437.91 330.00 436.56 321.68 437.68 C 314.76 438.36 307.71 438.35 300.94 440.07 C 276.60 447.79 256.47 465.60 242.83 486.85 C 241.73 485.70 240.64 484.53 239.77 483.20 C 226.29 462.59 215.04 440.51 206.60 417.36 C 203.06 407.15 199.19 396.94 197.20 386.30 C 204.84 387.07 212.29 389.33 220.02 389.38 C 230.49 389.78 241.17 390.04 251.41 387.43 C 262.06 385.09 272.56 380.13 279.73 371.71 C 284.93 365.60 288.05 357.91 289.30 350.03 C 289.71 344.36 289.63 338.66 289.33 332.99 C 288.27 324.11 285.51 315.57 282.94 307.04 C 289.99 304.58 297.26 300.76 300.83 293.87 C 302.78 290.62 303.22 286.79 303.33 283.08 C 299.59 283.05 295.84 283.04 292.10 283.10 C 292.25 291.07 284.15 294.88 277.58 296.61 C 266.92 299.04 255.93 300.00 244.99 299.77 C 231.02 299.62 217.01 300.18 203.05 299.16 C 197.30 299.17 191.54 299.13 185.79 298.99 C 185.95 273.32 188.31 247.56 194.39 222.57 C 205.90 172.31 232.08 125.10 270.49 90.44 C 305.06 58.76 348.46 37.56 393.87 26.66 M 361.27 277.96 C 359.90 283.88 358.92 290.46 361.96 296.05 C 364.99 302.04 371.27 305.38 377.48 307.20 C 375.47 316.60 372.99 326.33 375.05 335.95 C 377.24 352.61 387.99 367.03 401.35 376.70 C 418.30 388.71 438.66 395.32 459.17 397.73 C 471.96 399.47 485.03 399.60 497.82 397.76 C 516.22 395.64 534.57 389.67 549.52 378.49 C 562.25 369.13 571.51 354.86 574.17 339.23 C 577.34 324.80 574.24 309.90 569.89 296.06 C 568.88 292.54 566.11 288.72 562.10 288.73 C 542.70 289.09 523.27 289.28 503.96 291.14 C 492.97 292.12 481.91 292.42 470.99 293.97 C 442.79 295.90 414.51 300.25 386.23 297.42 C 381.53 296.64 376.41 295.53 372.92 292.06 C 370.18 289.03 371.63 284.80 372.08 281.24 C 368.56 279.89 364.97 278.70 361.27 277.96 Z" />
<path fill="#ffffff" opacity="1.00" d=" M 511.09 302.40 C 527.02 301.33 542.97 300.30 558.95 300.31 C 562.55 311.40 564.52 323.22 562.93 334.86 C 561.53 347.67 554.41 359.42 544.47 367.46 C 530.98 378.64 513.64 383.81 496.57 386.30 C 484.50 387.52 472.33 387.47 460.27 386.23 C 441.14 383.42 421.82 377.68 406.35 365.67 C 396.55 358.14 388.66 347.44 386.70 335.02 C 385.60 326.63 386.36 318.02 389.24 310.04 C 392.50 309.83 395.76 310.18 399.02 310.24 C 416.74 310.79 434.37 308.53 452.03 307.40 C 458.04 307.06 463.98 305.98 469.99 305.63 C 483.72 304.91 497.34 302.81 511.09 302.40 M 416.34 334.36 C 408.22 336.91 408.12 350.01 416.21 352.64 C 422.25 355.21 429.78 350.61 429.70 343.93 C 430.30 337.06 422.65 331.61 416.34 334.36 Z" />
<path fill="#ffffff" opacity="1.00" d=" M 186.39 310.58 C 214.64 310.77 242.97 313.09 271.16 310.02 C 276.65 324.32 280.76 340.58 275.78 355.62 C 271.36 367.98 258.37 374.60 246.10 376.52 C 229.28 379.81 211.88 377.57 195.43 373.38 C 193.91 373.29 193.79 371.57 193.41 370.49 C 189.47 350.75 186.78 330.72 186.39 310.58 M 211.29 330.29 C 203.60 332.06 201.69 343.57 208.32 347.76 C 214.17 352.65 224.27 347.57 223.77 339.96 C 224.44 333.57 217.26 328.24 211.29 330.29 Z" />
<path fill="#ffffff" opacity="1.00" d=" M 299.71 468.47 C 312.35 458.90 328.84 454.64 344.54 456.59 C 356.55 457.82 367.92 462.61 378.12 468.92 C 381.01 470.78 383.75 472.88 386.79 474.52 C 387.85 473.03 388.91 471.53 389.97 470.03 C 387.98 468.42 385.99 466.81 384.05 465.15 C 402.83 471.23 420.01 481.51 435.92 493.05 C 471.61 519.52 499.90 554.77 522.93 592.49 C 498.03 597.96 472.57 601.75 447.01 601.40 C 415.85 600.58 384.77 594.24 356.13 581.83 C 318.97 565.98 286.22 540.61 260.21 509.83 C 258.31 507.21 255.60 505.03 254.37 502.03 C 263.79 485.31 277.52 470.60 294.71 461.77 C 297.67 460.16 300.94 459.24 304.10 458.08 C 301.21 459.93 298.49 462.00 295.76 464.06 C 297.03 465.57 298.34 467.04 299.71 468.47 M 321.79 491.86 C 321.71 495.93 321.72 500.00 321.77 504.07 C 341.91 504.10 362.05 504.10 382.19 504.07 C 382.23 500.00 382.24 495.93 382.17 491.86 C 362.04 491.82 341.92 491.82 321.79 491.86 Z" />
<path fill="#ffffff" opacity="1.00" d=" M 21.96 838.38 C 28.74 838.33 35.50 837.28 42.28 837.93 C 42.52 845.99 43.85 853.95 44.65 861.95 C 45.44 868.82 45.72 875.75 46.85 882.58 C 31.23 882.58 15.62 882.57 0.00 882.58 L 0.00 839.29 C 7.32 839.01 14.63 838.51 21.96 838.38 Z" />
<path fill="#ffffff" opacity="1.00" d=" M 54.44 840.15 C 79.26 848.36 103.82 857.37 128.67 865.47 C 129.51 871.14 129.24 876.91 128.79 882.61 C 105.42 882.50 82.05 882.66 58.68 882.53 C 58.20 871.94 56.25 861.48 55.52 850.91 C 55.27 847.31 54.88 843.72 54.44 840.15 Z" />
<path fill="#ffffff" opacity="1.00" d=" M 141.05 879.43 C 173.24 879.50 205.44 879.45 237.64 879.46 C 239.97 884.58 241.85 890.10 245.64 894.37 C 249.25 898.12 255.04 896.99 259.38 895.35 C 268.38 891.16 277.27 886.70 285.99 881.95 C 288.18 880.79 290.38 879.27 292.98 879.46 C 397.10 879.51 501.22 879.38 605.34 879.52 C 605.56 883.91 605.16 888.39 606.18 892.71 C 606.93 896.37 611.11 898.56 614.62 897.49 C 624.66 895.07 631.92 886.95 638.48 879.48 C 719.97 879.52 801.47 879.30 882.96 879.60 C 865.74 883.49 848.40 886.77 831.14 890.44 C 723.22 912.58 615.34 934.95 507.40 957.00 L 0.00 957.00 L 0.00 894.65 C 46.99 894.66 93.98 894.62 140.96 894.67 C 141.01 889.59 140.98 884.51 141.05 879.43 Z" />
<path fill="#ffffff" opacity="1.00" d=" M 567.31 957.00 C 690.62 931.64 813.93 906.27 937.22 880.83 C 937.33 906.22 937.24 931.61 937.27 957.00 L 567.31 957.00 Z" />
</g>
</svg>
