<svg xmlns="http://www.w3.org/2000/svg" xmlns:xlink="http://www.w3.org/1999/xlink" id="Layer_1" viewBox="232.77 137.42 5689.51 725.16"><defs><style>.cls-1{fill:url(#linear-gradient);}.cls-2{fill:#02102c;}.cls-3{fill:#b61280;}.cls-4{fill:url(#linear-gradient-3);}.cls-5{fill:url(#linear-gradient-2);}</style><linearGradient id="linear-gradient" x1="858.31" y1="137.42" x2="858.31" y2="529.98" gradientUnits="userSpaceOnUse"><stop offset="0" stop-color="#e7007c"/><stop offset="1" stop-color="#56206b"/></linearGradient><linearGradient id="linear-gradient-2" x1="327.56" y1="862.58" x2="327.56" y2="454.61" xlink:href="#linear-gradient"/><linearGradient id="linear-gradient-3" x1="518.73" y1="200.05" x2="518.73" y2="786.75" gradientUnits="userSpaceOnUse"><stop offset="0" stop-color="#ef007b"/><stop offset="1" stop-color="#812285"/></linearGradient></defs><g><path class="cls-1" d="m1005.4,137.42h-295.37c-52.28,0-94.66,42.38-94.66,94.66,0,.83,0,1.66.03,2.48-.02.83-.03,1.66-.03,2.49v209.03s1.35,2.02,2.19,3.17c15.37,20.76,45.43,50.12,92.2,50.12s77.22-29.61,92.71-50.35c.91-1.22,2.22-3.06,2.22-3.06v-93.08c0-14.43,11.7-26.13,26.13-26.13h175.77c52.52,0,95.05-42.77,94.66-95.38-.39-52.2-43.65-93.94-95.85-93.94Z"/><circle class="cls-3" cx="1002.78" cy="523.93" r="98.48"/><path class="cls-5" d="m327.83,491.46c-49.25,0-80.22,32.66-94.93,53.41v221.86c0,52.19,41.75,95.46,93.94,95.85,52.61.39,95.38-42.14,95.38-94.66v-223.17c-14.6-20.78-45.29-53.29-94.39-53.29Z"/><path class="cls-4" d="m709.76,499.37c-49.1,0-79.79-32.51-94.39-53.28-7.92-9.28-15.84-18.57-23.76-27.85-17.39-20.39-34.78-40.79-52.17-61.18-17.2-19.65-34.27-39.41-51.1-59.39-16.25-19.28-31.3-39.95-48.21-58.62-21.94-24.22-53.44-38.99-86.25-38.99-3.91,0-7.83.18-11.73.56-12.56,1.19-24.93,4.35-36.53,9.35-11.29,4.87-21.83,11.45-31.16,19.46-9.29,7.96-17.38,17.32-23.91,27.67-7.02,11.13-12.35,23.29-15.22,36.15-1.33,5.96-2.14,12.03-2.43,18.12-.29,6.14,0,12.28,0,18.42v215.08c14.71-20.74,45.68-53.41,94.93-53.41s79.79,32.51,94.39,53.28c15.14,17.76,30.29,35.52,45.43,53.27,27.79,32.59,55.58,65.17,83.37,97.76,14.61,17.13,28.25,35.54,44.35,51.38,36.23,35.64,92.28,49.9,140.48,31.63,37.36-14.18,67.04-50.98,68.75-91.41.03-.15.06-.31.09-.46v-240.95c-14.71,20.74-45.68,53.41-94.93,53.41Z"/></g><g><path class="cls-2" d="m1627.33,699.85v-203.8c0-59.24-32.39-104.27-94-104.27s-99.53,49.76-99.53,109.01v199.06h-95.58v-390.23h86.1l6.32,52.93c39.5-38.71,78.99-58.45,127.97-58.45,91.63,0,165.09,68.72,165.09,191.16v204.59h-96.37Z"/><path class="cls-2" d="m1830.34,699.85v-299.38h-72.68v-84.52h72.68v-26.07c0-104.27,70.3-152.45,148.5-152.45,33.97,0,69.51,11.06,101.11,31.6l-35.55,71.88c-20.54-13.43-39.49-20.54-59.24-20.54-33.18,0-58.45,22.12-58.45,69.51v26.07h114.54v84.52h-114.54v299.38h-96.37Z"/><path class="cls-2" d="m2268.76,200.62v110.59h107.43v82.94h-108.22v168.25c0,37.13,20.54,55.3,50.56,55.3,15.01,0,32.39-4.74,46.61-11.85l26.86,82.15c-27.65,11.06-50.56,15.8-79.78,16.59-84.52,3.16-139.82-45.03-139.82-142.19v-168.25h-72.67v-82.94h72.67v-100.32l96.37-10.27Z"/><path class="cls-2" d="m2865.14,310.42l-237.77,552.16h-105.85l72.67-169.04-155.62-383.12h112.17l59.24,168.26,37.13,109.8,40.28-107.43,71.09-170.62h106.64Z"/><path class="cls-2" d="m3019.17,650.09c0,75.04-113.75,75.04-113.75,0s113.75-75.04,113.75,0Z"/><path class="cls-2" d="m3170.05,699.85v-299.38h-72.68v-84.52h72.68v-26.07c0-104.27,70.3-152.45,148.5-152.45,33.97,0,69.51,11.06,101.11,31.6l-35.55,71.88c-20.54-13.43-39.49-20.54-59.24-20.54-33.18,0-58.45,22.12-58.45,69.51v26.07h114.54v84.52h-114.54v299.38h-96.37Z"/><path class="cls-2" d="m3569.76,200.62c0,75.04-113.75,75.04-113.75,0s113.75-75.04,113.75,0Zm-105.06,108.22v391.01h96.37v-391.01h-96.37Z"/><path class="cls-2" d="m3950.5,699.85v-203.8c0-59.24-32.39-104.27-94-104.27s-99.53,49.76-99.53,109.01v199.06h-95.58v-390.23h86.1l6.32,52.93c39.5-38.71,78.99-58.45,127.97-58.45,91.63,0,165.09,68.72,165.09,191.16v204.59h-96.37Z"/><path class="cls-2" d="m4454.48,310.42h92.42v389.44h-90.84l-4.74-56.87c-22.12,45.82-82.94,67.93-126.39,68.72-115.33.79-200.64-70.3-200.64-206.96s89.26-204.59,203.01-203.8c52.14,0,101.9,24.49,124.02,63.19l3.16-53.71Zm-233.82,194.32c0,74.25,51.35,118.49,115.33,118.49,151.67,0,151.67-236.19,0-236.19-63.99,0-115.33,43.45-115.33,117.7Z"/><path class="cls-2" d="m4930.81,699.85v-203.8c0-59.24-32.39-104.27-94-104.27s-99.53,49.76-99.53,109.01v199.06h-95.58v-390.23h86.1l6.32,52.93c39.5-38.71,78.99-58.45,127.97-58.45,91.63,0,165.09,68.72,165.09,191.16v204.59h-96.37Z"/><path class="cls-2" d="m5460.06,650.09c-45.02,44.23-92.42,61.61-150.08,61.61-112.96,0-206.96-67.94-206.96-206.17s94-206.17,206.96-206.17c55.29,0,97.95,15.8,140.6,57.66l-60.82,63.99c-22.91-20.54-51.35-30.81-78.2-30.81-64.77,0-112.17,47.39-112.17,115.33,0,74.25,50.56,113.75,110.59,113.75,30.81,0,61.61-8.69,85.31-32.39l64.77,63.2Z"/><path class="cls-2" d="m5616.46,539.5c6.32,48.19,48.18,82.94,116.12,82.94,35.55,0,82.15-13.43,104.27-36.34l61.61,60.83c-41.07,42.66-108.22,63.19-167.47,63.19-134.29,0-214.07-82.94-214.07-207.75s80.58-203.8,206.96-203.8,211.7,80.57,196.69,240.93h-304.12Zm211.7-79.78c-6.32-50.56-45.82-75.84-101.11-75.84-52.13,0-94.79,25.28-109.01,75.84h210.12Z"/></g></svg>