<svg xmlns="http://www.w3.org/2000/svg" xmlns:xlink="http://www.w3.org/1999/xlink" id="Layer_1" viewBox="65.76 137.42 868.48 725.16"><defs><style>.cls-1{fill:url(#linear-gradient);}.cls-2{fill:#b61280;}.cls-3{fill:url(#linear-gradient-3);}.cls-4{fill:url(#linear-gradient-2);}</style><linearGradient id="linear-gradient" x1="691.3" y1="137.42" x2="691.3" y2="529.98" gradientUnits="userSpaceOnUse"><stop offset="0" stop-color="#e7007c"/><stop offset="1" stop-color="#56206b"/></linearGradient><linearGradient id="linear-gradient-2" x1="160.55" y1="862.58" x2="160.55" y2="454.61" xlink:href="#linear-gradient"/><linearGradient id="linear-gradient-3" x1="351.72" y1="200.05" x2="351.72" y2="786.75" gradientUnits="userSpaceOnUse"><stop offset="0" stop-color="#ef007b"/><stop offset="1" stop-color="#812285"/></linearGradient></defs><path class="cls-1" d="m838.39,137.42h-295.37c-52.28,0-94.66,42.38-94.66,94.66,0,.83,0,1.66.03,2.48-.02.83-.03,1.66-.03,2.49v209.03s1.35,2.02,2.19,3.17c15.37,20.76,45.43,50.12,92.2,50.12s77.22-29.61,92.71-50.35c.91-1.22,2.22-3.06,2.22-3.06v-93.08c0-14.43,11.7-26.13,26.13-26.13h175.77c52.52,0,95.05-42.77,94.66-95.38-.39-52.2-43.65-93.94-95.85-93.94Z"/><circle class="cls-2" cx="835.76" cy="523.93" r="98.48"/><path class="cls-4" d="m160.82,491.46c-49.25,0-80.22,32.66-94.93,53.41v221.86c0,52.19,41.75,95.46,93.94,95.85,52.61.39,95.38-42.14,95.38-94.66v-223.17c-14.6-20.78-45.29-53.29-94.39-53.29Z"/><path class="cls-3" d="m542.75,499.37c-49.1,0-79.79-32.51-94.39-53.28-7.92-9.28-15.84-18.57-23.76-27.85-17.39-20.39-34.78-40.79-52.17-61.18-17.2-19.65-34.27-39.41-51.1-59.39-16.25-19.28-31.3-39.95-48.21-58.62-21.94-24.22-53.44-38.99-86.25-38.99-3.91,0-7.83.18-11.73.56-12.56,1.19-24.93,4.35-36.53,9.35-11.29,4.87-21.83,11.45-31.16,19.46-9.29,7.96-17.38,17.32-23.91,27.67-7.02,11.13-12.35,23.29-15.22,36.15-1.33,5.96-2.14,12.03-2.43,18.12-.29,6.14,0,12.28,0,18.42v215.08c14.71-20.74,45.68-53.41,94.93-53.41s79.79,32.51,94.39,53.28c15.14,17.76,30.29,35.52,45.43,53.27,27.79,32.59,55.58,65.17,83.37,97.76,14.61,17.13,28.25,35.54,44.35,51.38,36.23,35.64,92.28,49.9,140.48,31.63,37.36-14.18,67.04-50.98,68.75-91.41.03-.15.06-.31.09-.46v-240.95c-14.71,20.74-45.68,53.41-94.93,53.41Z"/></svg>