<svg width="36" height="35" viewBox="0 0 36 35" fill="none" xmlns="http://www.w3.org/2000/svg">
<path d="M17.9482 35C27.8946 35 35.8965 27.198 35.8965 17.5C35.8965 7.80203 27.8946 0 17.9482 0C8.00187 0 0 7.80203 0 17.5C0 27.198 8.00187 35 17.9482 35Z" fill="#2775CA"/>
<path d="M22.8843 20.2705C22.8843 17.7185 21.3139 16.8435 18.1729 16.479C15.9294 16.1872 15.4807 15.604 15.4807 14.583C15.4807 13.5621 16.2286 12.906 17.7242 12.906C19.0703 12.906 19.8182 13.3435 20.1921 14.4372C20.2669 14.656 20.4913 14.8018 20.7156 14.8018H21.9121C22.2113 14.8018 22.4356 14.583 22.4356 14.2915V14.2185C22.1364 12.6143 20.7903 11.3747 19.0703 11.229V9.47896C19.0703 9.18723 18.846 8.96848 18.4721 8.89551H17.3503C17.0511 8.89551 16.8268 9.11426 16.752 9.47896V11.156C14.5084 11.4477 13.0876 12.906 13.0876 14.729C13.0876 17.1352 14.5833 18.083 17.7242 18.4477C19.8182 18.8122 20.4913 19.2497 20.4913 20.4165C20.4913 21.5832 19.4442 22.3852 18.0234 22.3852C16.0789 22.3852 15.4058 21.583 15.1815 20.4893C15.1068 20.1977 14.8825 20.0518 14.6581 20.0518H13.3867C13.0876 20.0518 12.8633 20.2705 12.8633 20.5622V20.6352C13.1623 22.458 14.3589 23.7705 16.8268 24.1352V25.8852C16.8268 26.1768 17.0511 26.3955 17.425 26.4685H18.5468C18.846 26.4685 19.0703 26.2497 19.1452 25.8852V24.1352C21.3887 23.7705 22.8843 22.2393 22.8843 20.2705Z" fill="white"/>
<path d="M14.1368 27.9273C8.30364 25.8857 5.31221 19.542 7.48107 13.9273C8.60284 10.8648 11.0707 8.53152 14.1368 7.43777C14.436 7.29199 14.5855 7.07324 14.5855 6.70854V5.68777C14.5855 5.39604 14.436 5.17729 14.1368 5.10449C14.062 5.10449 13.9125 5.10449 13.8376 5.17729C6.73317 7.36479 2.84432 14.7295 5.08785 21.6565C6.43397 25.7398 9.64976 28.8753 13.8376 30.1878C14.1368 30.3335 14.436 30.1878 14.5107 29.896C14.5855 29.8232 14.5855 29.7503 14.5855 29.6045V28.5835C14.5855 28.3648 14.3612 28.0732 14.1368 27.9273ZM22.064 5.17729C21.7648 5.03152 21.4656 5.17729 21.391 5.46902C21.3161 5.54199 21.3161 5.61479 21.3161 5.76074V6.78152C21.3161 7.07324 21.5405 7.36479 21.7648 7.51074C27.598 9.55229 30.5894 15.896 28.4206 21.5107C27.2988 24.5732 24.8309 26.9065 21.7648 28.0003C21.4656 28.146 21.3161 28.3648 21.3161 28.7295V29.7503C21.3161 30.042 21.4656 30.2607 21.7648 30.3335C21.8397 30.3335 21.9892 30.3335 22.064 30.2607C29.1685 28.0732 33.0573 20.7085 30.8138 13.7815C29.4677 9.62527 26.177 6.48979 22.064 5.17729Z" fill="white"/>
</svg>
