<?xml version="1.0" standalone="no"?>
<!DOCTYPE svg PUBLIC "-//W3C//DTD SVG 20010904//EN"
 "http://www.w3.org/TR/2001/REC-SVG-20010904/DTD/svg10.dtd">
<svg version="1.0" xmlns="http://www.w3.org/2000/svg"
 width="50.000000pt" height="50.000000pt" viewBox="0 0 50.000000 50.000000"
 preserveAspectRatio="xMidYMid meet">

<g transform="translate(0.000000,50.000000) scale(0.100000,-0.100000)"
fill="#000000" stroke="none">
<path d="M181 481 c-11 -7 0 -27 50 -93 63 -81 90 -100 97 -67 3 18 -106 169
-122 169 -6 0 -17 -4 -25 -9z"/>
<path d="M270 485 c0 -12 86 -115 97 -115 6 0 21 13 32 29 24 33 20 39 -50 70
-42 20 -79 27 -79 16z"/>
<path d="M101 443 l-22 -18 51 -62 c28 -35 55 -63 59 -63 5 0 14 7 21 15 10
12 3 26 -36 80 -26 36 -49 65 -50 65 -1 0 -11 -8 -23 -17z"/>
<path d="M30 348 c-26 -57 -25 -140 1 -197 11 -25 23 -40 28 -35 4 5 29 37 55
72 l48 62 -52 70 c-29 39 -54 70 -56 70 -3 0 -14 -19 -24 -42z"/>
<path d="M399 333 c-24 -31 -48 -63 -52 -71 -8 -11 37 -81 94 -146 15 -17 49
76 49 134 0 47 -29 140 -43 140 -3 0 -24 -26 -48 -57z"/>
<path d="M230 270 c-8 -15 -7 -25 3 -40 14 -20 14 -20 31 -1 14 15 15 24 6 40
-14 26 -26 27 -40 1z"/>
<path d="M170 183 c0 -12 61 -102 116 -172 1 -1 14 1 28 5 l25 9 -67 87 c-63
82 -102 109 -102 71z"/>
<path d="M286 185 c-3 -9 14 -42 41 -79 45 -62 47 -64 70 -49 25 17 26 15 -32
91 -39 52 -68 65 -79 37z"/>
<path d="M105 108 c-26 -31 -26 -32 -8 -46 30 -23 96 -52 121 -52 22 0 20 4
-23 60 -25 32 -49 62 -54 65 -5 3 -21 -9 -36 -27z"/>
</g>
</svg>
